<svg width="24" height="24" viewBox="0 0 24 24" fill="none" xmlns="http://www.w3.org/2000/svg">
<path d="M13.3753 19.2027C13.2346 19.4452 13.0327 19.6465 12.7898 19.7864C12.5468 19.9264 12.2714 20 11.991 20C11.7107 20 11.4353 19.9264 11.1923 19.7864C10.9494 19.6465 10.7475 19.4452 10.6068 19.2027M16.7898 8.80085C16.7898 7.52759 16.2861 6.30647 15.3858 5.40614C14.4854 4.5058 13.2643 4 11.991 4C10.7178 4 9.49666 4.5058 8.59632 5.40614C7.69599 6.30647 7.19019 7.52759 7.19019 8.80085C7.19019 13 3.45013 13.7138 4.78976 15.5C6.12939 17.2862 17.7898 17.5 19.2898 15.5C20.5948 13.76 16.7898 13 16.7898 8.80085Z" stroke="#131214" stroke-width="1.5" stroke-linecap="round" stroke-linejoin="round"/>
</svg>
