<svg width="24" height="24" viewBox="0 0 24 24" fill="none" xmlns="http://www.w3.org/2000/svg">
<path d="M6 19.2194C6 19.2194 9.7222 14.7778 12 12.5C14.2778 10.2222 15.5 10.5 16.7799 11.3879C18.0598 12.2759 19.9239 14.5 19.9239 14.5M10.2222 8.88888C10.2222 9.62525 9.62525 10.2222 8.88887 10.2222C8.15249 10.2222 7.55554 9.62525 7.55554 8.88888C7.55554 8.1525 8.15249 7.55554 8.88887 7.55554C9.62525 7.55554 10.2222 8.1525 10.2222 8.88888ZM4 17C4 18.6569 5.34314 20 7 20H17C18.6569 20 20 18.6569 20 17V7C20 5.34315 18.6569 4 17 4H7.00001C5.34315 4 4.00001 5.34315 4.00001 7L4 17Z" stroke="#131214" stroke-width="1.5" stroke-linejoin="round"/>
</svg>
