<svg width="24" height="24" viewBox="0 0 24 24" fill="none" xmlns="http://www.w3.org/2000/svg">
<path d="M16.0318 4.68084C16.0318 4.68084 16.5039 4.29376 16.7859 4.17694C17.0679 4.06013 17.3702 4 17.6755 4C17.9807 4 18.283 4.06013 18.565 4.17694C18.8471 4.29376 19.1033 4.46499 19.3192 4.68084C19.535 4.89669 19.7062 5.15295 19.8231 5.43497C19.9399 5.717 20 6.01927 20 6.32453C20 6.6298 19.9399 6.93207 19.8231 7.21409C19.7062 7.49612 19.3192 7.96823 19.3192 7.96823C19.3192 7.96823 11.852 17.6 8.22423 19.0632C7.32903 19.4242 6.12036 19.7474 5.1781 19.9722C4.47586 20.1397 3.86026 19.5241 4.0278 18.8219C4.2526 17.8796 4.5758 16.671 4.93684 15.7758C6.39999 12.148 16.0318 4.68084 16.0318 4.68084Z" stroke="#131214" stroke-width="1.5" stroke-linecap="round" stroke-linejoin="round"/>
</svg>
